# xmcd
#
# Track frame offsets: 
#        150
#        15540
#        32757
#        48133
#        65844
#        82646
#        98925
#        115796
#        129585
#        147282
#        165645
#        179539
#
# Disc length: 2532 seconds
#
# Revision: 1
# Processed by: cddbd v1.5.2PL0 Copyright (c) Steve Scherf et al.
# Submitted via: ExactAudioCopy v1.0b4
#
DISCID=9809e20c
DTITLE=Flavio Jose - O Poeta Cantador
DYEAR=2006
DGENRE=Forró
TTITLE0=O Poeta Cantador
TTITLE1=Pra Que Solidão
TTITLE2=Pano De Chão
TTITLE3=Pra Ver O Amor Nascer
TTITLE4=Sem Ver Você
TTITLE5=Brasas
TTITLE6=Tão Sozinho
TTITLE7=Brincando De Solidão
TTITLE8=É Só Você Querer
TTITLE9=Meu Forró
TTITLE10=Bola De Neve
TTITLE11=Do Jeito Que Você Gosta
EXTD=
EXTT0=
EXTT1=
EXTT2=
EXTT3=
EXTT4=
EXTT5=
EXTT6=
EXTT7=
EXTT8=
EXTT9=
EXTT10=
EXTT11=
PLAYORDER=
